<svg width="512" height="512" viewBox="0 0 512 512" fill="none" xmlns="http://www.w3.org/2000/svg">
  <rect width="512" height="512" rx="100" fill="#2E294E"/>
  <path d="M256 112C176.5 112 112 176.5 112 256C112 335.5 176.5 400 256 400C335.5 400 400 335.5 400 256C400 176.5 335.5 112 256 112ZM256 368C194.1 368 144 317.9 144 256C144 194.1 194.1 144 256 144C317.9 144 368 194.1 368 256C368 317.9 317.9 368 256 368Z" fill="#FF6B35"/>
  <path d="M256 176C211.9 176 176 211.9 176 256C176 300.1 211.9 336 256 336C300.1 336 336 300.1 336 256C336 211.9 300.1 176 256 176ZM256 304C229.5 304 208 282.5 208 256C208 229.5 229.5 208 256 208C282.5 208 304 229.5 304 256C304 282.5 282.5 304 256 304Z" fill="#FF6B35"/>
  <path d="M256 224C247.2 224 240 231.2 240 240V272C240 280.8 247.2 288 256 288C264.8 288 272 280.8 272 272V240C272 231.2 264.8 224 256 224Z" fill="#FF6B35"/>
  <path d="M256 192C264.8 192 272 184.8 272 176C272 167.2 264.8 160 256 160C247.2 160 240 167.2 240 176C240 184.8 247.2 192 256 192Z" fill="#FF6B35"/>
</svg>
